<svg xmlns="http://www.w3.org/2000/svg" viewBox="0 0 31.52 31.52">
  <path d="M20.25 3.55c.18.07.35.15.5.23l.16.08.4.2.2.1.3.22.18.1.34.27.08.07c1.44 1.22 2.55 2.8 3.9 3.43.3.15.64.25 1 .28 1.97.14 2.6-3.48.3-6.82-2.3-3.3-2.7.1-3.83-.8-1.1-.9-5.27 1.8-3.35 2.7z"/>
  <path d="M22.83 10.18c1.24 0 2.35-.6 3.04-1.53-.9-.44-1.7-1.24-2.5-2.1-.98-1-2-2.05-3.3-2.56l-.16-.1c-.5.6-.9 1.5-.9 2.4 0 2.1 1.8 3.8 3.9 3.8zM15.05 25.9l.9.1c.12 0 .24 0 .36.02l1 .08c.1 0 .2 0 .3.02l1.1.06h.3c.28.02.55.02.8.02h.8c.14 0 .3 0 .44-.02.13 0 .24 0 .36-.02l.4-.03.33-.03c.12 0 .24-.03.4-.05.1 0 .2-.02.26-.04h.6l.33-.1.2-.04.3-.12c.08 0 .1 0 .18-.04l.36-.23.18-.2.08-.06.1-.2.06-.1.1-.24s0-.03.03-.05c.04-.1.1-.25.1-.4 0-.03.04-.06.05-.1l.1-.35v-.14l.08-.4.02-.12.1-.55v-.03l.04-.6c0-.06 0-.1.04-.17l.05-.5V21l.1-1.4v-.83c0-.75.03-1.5 0-2.2v-.78c0-2.1-.17-3.9-.3-4.6-1.27-.9-3.85-.4-4.8-.4-.3.2-.64 1.65-1.1 3.3v.05l-.1.34c-.04 0-.05.04-.05.1l-.1.3-.07.1c0 .1-.06.2-.1.3l-.02.1-.1.26c0 .08-.05.1-.07.18l-.1.25c0 .05-.03.1-.05.16l-.1.2-.07.2-.1.3-.1.26-.1.1-.1.24-.1.14-.14.2-.07.16c-.06.05-.1.1-.14.17l-.1.1-.1.17-.1.1-.15.12c-.45.4-.97.64-1.6.58-3.42-.44-7.4 3.5-5.85 5.38v.03l.14.17.03.06.3.26.07.02.16.08.2.08.13.07.23.1.13.03.4.1c1 .2 2.04.35 3.1.47h.2z"/>
  <path d="M26.04 26.6h.02l2.42-10.94-2.12-.47c.12 3.9-.1 9.4-1.42 10.5-.83.6-2.53.9-5.07.9-1.47 0-3.22-.1-5.03-.38v.32h4.12l-.52 2.93h-3.72l-1.27 1.9h14.3l-1.27-1.9h-3.95L22 26.6h4.05v-.07zM11.5 4.8C11.5 2.5 9.66.67 7.4.67S3.27 2.5 3.27 4.77 5.13 8.9 7.4 8.9c2.26 0 4.1-1.84 4.1-4.1zm-1.8-.24h1.38v.46h-1.4v-.46zM7.13.98h.46v1.4h-.5V.98zM5.1 5.02H3.7v-.46h1.4v.46zm.42-2.05l1.85 1.8L8.7 3.43l.32.32-1.64 1.7L5.2 3.3l.32-.33zm1.56 4.06h.45v1.4h-.45v-1.4z"/>
  <path d="M12.18 4.8c0-2.65-2.15-4.8-4.8-4.8C4.76 0 2.6 2.15 2.6 4.8c0 2.63 2.15 4.78 4.8 4.78 2.63 0 4.78-2.15 4.78-4.8zm-9.42 0C2.76 2.23 4.84.15 7.4.15 9.93.15 12 2.25 12 4.8c0 2.54-2.08 4.62-4.63 4.62-2.57 0-4.64-2.08-4.64-4.63zm11.68 13.3l.04-.03c.26.3.84.56 1.82.66 1.4-.24 2.3-2.64 2.9-4.68-1.03 1.48-2.35 2.92-3.6 3.06l-2.95-4.6-1.27.8 3.06 4.9zm-2.77 7.8c-1.1-.2-1.7-.6-2.06-1.05L7.9 27.7H6.7v1.72h5.56V27.7h-.1l1.1-1.56-1.6-.25z"/>
</svg>
