<svg width="32" height="32" viewBox="0 0 32 32" version="2.0" xmlns="http://www.w3.org/2000/svg" xmlns:xlink="http://www.w3.org/1999/xlink" xmlns:figma="http://www.figma.com/figma/ns"><title>clipboard</title><desc>Created using Figma 0.90</desc><g id="Canvas" figma:type="canvas"><g id="icon" style="mix-blend-mode:normal;" figma:type="group"><g id="Vector" style="mix-blend-mode:normal;" figma:type="vector"><use xlink:href="#path0_fill" fill="#FFFFFF" style="mix-blend-mode:normal;"/></g><g id="Vector" style="mix-blend-mode:normal;" figma:type="vector"><use xlink:href="#path1_fill" transform="translate(7.87431 11.6064)" fill="#FFFFFF" style="mix-blend-mode:normal;"/></g></g></g><defs><path id="path0_fill" d="M 10.5759 15.345L 7.72522 15.1437L 8.22618 15.4624L 10.0153 15.837C 9.91991 15.932 9.83642 16.0215 9.78871 16.1165C 9.77678 16.1333 9.75889 16.1724 9.74696 16.2172L 11.8164 16.2172L 13.1464 16.4967L 15.0667 16.2172L 15.2456 16.2172L 15.2576 16.1892C 16.0925 16.0774 16.8916 15.9544 17.6192 15.8538L 15.3232 15.686C 15.8838 11.5153 17.0885 2.82719 13.2716 1.3624C 12.0192 0.887178 8.91799 -0.538477 6.19251 0.216282C 0.598425 1.65312 0.198848 8.93794 0.198848 8.93794C 0.198848 8.93794 -0.43332 20.5109 0.556678 23.5691C 1.52878 26.6272 5.73329 32 5.73329 32C 5.73329 32 6.27004 16.9999 5.79293 16.1053C 2.53071 14.4561 1.99993 9.17275 1.99993 9.17275C 1.99993 9.17275 5.66173 8.90439 7.92799 9.06093C 10.1942 9.21188 13.856 8.93794 13.856 8.93794C 13.856 8.93794 14.0946 10.8388 13.2776 12.5831C 12.6931 13.8131 11.4288 14.6741 10.5759 15.345L 10.5759 15.345ZM 28.5271 17.6372L 28.5092 17.6372L 20.4401 17.0558L 19.6291 17.8385C 20.1658 17.9503 20.5117 18.0062 20.5833 18.0062C 23.6845 18.6659 25.5929 21.2153 25.6406 21.288C 26.1177 22.1266 27.1196 22.7416 28.3005 22.7808C 29.9882 22.8367 31.4196 21.7465 31.4792 20.3208C 31.5388 18.9119 30.2149 17.7043 28.5271 17.6372L 28.5271 17.6372ZM 28.3363 21.9421C 27.1316 21.903 26.1893 21.0868 26.231 20.1307C 26.2728 19.1691 27.2866 18.4311 28.4854 18.4758C 29.6901 18.5206 30.6323 19.3368 30.5906 20.2984C 30.5488 21.2489 29.535 21.9925 28.3363 21.9477L 28.3363 21.9421Z"/><path id="path1_fill" d="M 20.778 5.10273C 20.8377 5.10273 20.8854 5.1195 20.9391 5.1195C 22.6328 5.19777 24.0581 4.10197 24.1237 2.6875C 24.1834 1.26744 22.8594 0.0598228 21.1657 0.00391472C 19.961 -0.0519933 18.8994 0.495905 18.3507 1.32894C 18.2017 1.49666 16.1441 3.75534 13.0608 4.15788C 12.5539 4.15788 0.489035 5.95812 0.489035 5.95812L 0 6.23766L 11.3015 6.16498L 12.4346 5.10273L 20.7661 5.12509L 20.778 5.10273ZM 21.1359 0.814581C 22.3286 0.870489 23.2828 1.69234 23.2351 2.64836C 23.1934 3.60998 22.1795 4.34797 20.9808 4.30324C 19.7761 4.25852 18.8338 3.43667 18.8696 2.48064C 18.9173 1.5302 19.9252 0.786627 21.1359 0.831354L 21.1359 0.814581ZM 10.9079 5.67858C 10.6514 5.67858 10.4487 5.45495 10.4606 5.23132C 10.4725 4.99091 10.6872 4.80082 10.9496 4.81201C 11.2061 4.81201 11.4088 5.02446 11.3969 5.25927C 11.385 5.50527 11.1703 5.69535 10.9079 5.68976L 10.9079 5.67858Z"/></defs></svg>
