<svg xmlns="http://www.w3.org/2000/svg" viewBox="0 0 379.8 379.8">
  <path d="M290.93 213.74c-2.3-.6-4.55-1.03-6.83-1.33h-.22c-2.33-.3-4.64-.4-6.9-.4-1.57 0-3.12.1-4.65.3-.47.1-.9.1-1.38.2-1.08.1-2.16.3-3.22.5l-1.48.3-3.15.9-1.26.4c-1.4.5-2.8 1-4.13 1.67-2.1 1-4 2.15-5.9 3.5-1.4.95-2.7 1.96-4 3.1-.3.28-.5.57-.8.85-1.4 1.37-2.7 2.8-3.9 4.37-1.8 2.4-3.3 4.9-4.6 7.6L234 230l-4.8-5.95c-3.06-3.8-6.67-8.23-10.67-13.2l-7.04-8.73-7.5-9.28-.4-.5c-5.1-6.3-10.5-13.03-16.2-20.04C214.4 109.1 241 35.7 236.7 0c-4.6 10.07-38.55 84.1-68.24 148.85l-99.8-123.5c4.53 34.78 46.43 97.1 87.27 150.78L128 237.03c-1.2-1.43-2.45-2.8-3.85-4.08-7.97-7.25-18.25-10.73-29.2-10.73-16.7 0-34.96 8.1-48.86 23.35-23.1 25.28-25.4 60.6-5.3 78.9 7.9 7.25 18.2 10.76 29.2 10.76 16.7 0 34.9-8.12 48.8-23.38 8-8.8 13.4-18.82 16.4-28.9l.2.64s18.3-35.9 39.4-83c5.6 7.1 11 13.8 16.2 20.3l.7.8 1.8 2.3.3.3c2.6 3.2 5.2 6.3 7.7 9.3 0 0 .03.1.1.1 4.83 5.87 9.35 11.3 13.42 16.12l.5.6c2.6 3.1 5.03 5.94 7.23 8.52l.3.33c3 3.56 5.6 6.56 7.65 9l.05.04 5.6 6.48.2-1.55c3 9.74 8.33 19.4 16.1 27.93 13.9 15.23 32.1 23.34 48.8 23.34 10.97 0 21.24-3.5 29.2-10.75 20.1-18.3 17.7-53.6-5.3-78.9-10.06-11.1-22.43-18.38-34.84-21.57zM111.7 276.1c-2 6.9-5.8 13.55-10.98 19.24-8.75 9.6-20.23 15.34-30.7 15.34-5.26 0-9.54-1.47-12.7-4.34-9.73-8.85-6.5-29.55 6.9-44.26 8.76-9.63 20.25-15.37 30.73-15.37 5.25 0 9.53 1.5 12.7 4.4.43.4.92 1 1.48 1.6l6.96 8.4-4.4 15.1zm61.36-93.43c-3.4 0-6.14-2.74-6.14-6.13 0-3.4 2.74-6.14 6.14-6.14 3.38 0 6.13 2.74 6.13 6.13 0 3.4-2.8 6.14-6.2 6.14zM314.6 296c-3.18 2.9-7.45 4.36-12.7 4.36-10.48 0-21.97-5.73-30.73-15.35-2.68-2.9-4.98-6.2-6.87-9.5l16.72-38.7c9.3 1.3 19 6.7 26.63 15.1 13.43 14.8 16.67 35.4 6.94 44.3z"/>
  <path d="M286.5.04c-2.3-.35-2.83 1.68-1.12 2.68 12.5 7.43 23.2 14.65 30.8 22.33l-34.1-14.7-2.2 5.1 43.7 18.85c1.47 2.42 2.6 4.94 3.4 7.5l-49.3-21.25-2.2 5.1 52.65 22.72c.15 1.93.04 3.9-.23 5.96l-54.62-23.57-2.2 5.1 55.6 24c-.4 1.34-.95 2.73-1.54 4.13l-55.8-24.1-2.2 5.1 55.84 24.1-2.05 4.7-55.84-24.1-2.3 5.1 55.9 24.1-2.2 5.1-55.9-24.1-2.2 5L314.2 89l-2.2 5.1L256.17 70l-2.2 5.1 55.83 24.14-.3.62-1.75 4.1L252 80l-2.2 5.1 55.84 24.1-2.2 5.1-55.85-24.1-2.2 5.1 55.8 24.12-1.6 3.7-55.9-24.1-2.2 5.1 55.8 24.1c-.7 1.53-1.4 3.1-2.1 4.73l-55.9-24.1-2.2 5.1 55.8 24.1c-.7 1.66-1.43 3.38-2.2 5.12L235 119.05l-2.23 5.1 55.85 24.1-2.2 5.1-55.83-24.1-2.2 5.1 55.8 24.1-2.1 4.74-55.86-24.1-2.2 5.1 55.9 24.1-2.2 5.1-55.8-24.1-2.2 5.1 55.8 24.1-1.8 4.2-55.8-24.1-2.2 5.1 55.84 24.1-2.07 4.7-55.83-24.1-2.2 5.1 55.84 24.1c-.6 1.32-1.16 2.66-1.74 4.02l-55.86-24.1-2.18 5.1 53.9 23.3c4.8-1.4 9.9-2.13 15.3-2.13 5.6 0 11.4.93 17.1 2.5l41.1-95.4c6.94-16.1 12.32-28.6 14.9-34.5 11.9-27.34-19.6-69.7-63.5-76.4zm-47.32 220.1c1.04-1.17 2.05-2.36 3.2-3.4.34-.3.7-.55 1-.84l-16.17-6.98 7.6 9.28 4.5 1.94zm-8.24 60.5l-55.2-23.8-2.22 5.1 55.85 24.1c-.73 1.72-1.48 3.4-2.2 5.1l-55.85-24.1-2.2 5.1 55.84 24.1c-.7 1.6-1.37 3.2-2.05 4.75l-55.8-24.1-2.2 5 55.9 24.1-2.2 5.1-55.8-24.1-2.2 5.1 55.9 24.1-1.8 4.2-55.8-24.1-2.2 5.1 55.8 24.1-2 4.7-55.8-24.1-2.2 5.1 55.8 24.1-2.2 5.1-55.82-24.1-2.2 5.1 55.8 24.1c-.73 1.8-1.6 3.4-2.46 4.9l-55.56-23.98-2.2 5.1 54.5 23.5c-1.22 1.5-2.5 2.8-3.9 3.94l-52.66-22.7-2.2 5.1 49.3 21.25c-2.4 1.2-5 2.1-7.76 2.7L137 346.6l-2.23 5.1 34.1 14.7c-11.1-.23-24-3.2-38.4-7.35-1.8-.55-1.95 1.5-.1 2.96 34.98 27.4 87.45 21.3 99.27-6.1 2.95-6.8 10.4-24.1 20.1-46.5-.85-.8-1.7-1.6-2.5-2.5-7-7.7-12.55-16.7-16.17-26.2zm23.7-72l-42.46-18.32 2.65 3.27 4.86 6 28.8 12.4c1.9-1.3 4-2.5 6.1-3.4zm-76.7 43.06L222.6 271c-2.33-2.7-5.06-5.9-8.2-9.58l-34.28-14.8-2.2 5.1zm8.04-18.63l7.46 3.2c-1.9-2.28-3.83-4.64-5.8-7.07l-1.66 3.88zm-3.78 8.8l24.74 10.68c-2.48-2.94-5.13-6.13-7.87-9.43l-14.7-6.35-2.18 5.1z"/>
</svg>
