<svg xmlns="http://www.w3.org/2000/svg" viewBox="0 0 32 32">
  <ellipse cx="27.2" cy="4.37" rx="3.37" ry="3.48"/>
  <path d="M29.4 9.34c-1.2-1-3.3-.44-4.37-.15-1.18.4-3.43-.3-6.46-1.2.03-.1.05-.2.05-.3 0-.7-.55-1.3-1.28-1.4-.15-.6-.7-1-1.32-1-.45 0-.88.2-1.13.6-.2-.1-.3-.1-.5-.1-.8 0-1.4.6-1.4 1.3 0 .3.1.6.3.9-1.1.5-1.8 1.6-1.8 2.8 0 1.7 1.4 3.1 3.1 3.1s3.2-1.46 3.2-3.2v-.26h.2c.5 0 1-.26 1.2-.67 2.2.4 5.6 1.1 5.6 1.57 0 .75-.3 7.97-.06 8.2l-.55 5.4.5 5.25h-1.5V32h5.07V20.52c.6-.12 1-.44 1.1-1.08.2-2.05 1.2-9-.18-10.1zM13.35 7.28c0-.6.5-1.1 1.1-1.1.15 0 .3.04.44.1l.1.05v-.1c.2-.36.5-.58.9-.58.5 0 1 .38 1.1.9v.1h.1c.6 0 1.1.5 1.1 1.1V8l-.8-.3v1.6c-.6-.9-1.6-1.5-2.8-1.5-.4 0-.8.1-1.2.2-.2-.2-.3-.5-.3-.8zm4.87 3.27c-.06 0-.12 0-.2-.02-.02-.23-.1-.45-.16-.65.28.04.73.1 1.28.2-.2.3-.53.47-.9.47z"/>
  <circle cx="18.09" cy="5.02" r=".54"/>
  <circle cx="15.78" cy="3.83" r=".54"/>
  <circle cx="16.97" cy="2.62" r=".31"/>
  <circle cx="17.73" cy="3.65" r=".36"/>
  <circle cx="17.8" cy="1.69" r=".24"/>
  <circle cx="15.93" cy=".24" r=".24"/>
  <path d="M17.55 27.9l2.03-9.13-1.93-.43c.1 3.33-.08 7.9-1.2 8.8-.68.54-2.1.82-4.22.82-1.18 0-2.57-.1-4.02-.26v.25h3.5l-.4 2.46H8.1L7.06 32H19l-1.07-1.6h-3.3l-.44-2.44h3.3v-.06z"/>
  <path d="M4 26.2l.02.02c.06.07.12.14.2.2 0 0 .02 0 .03.02l.3.2h.05c.1.05.2.1.3.13.04 0 .08.02.1.04.15.1.3.1.46.1l1.65.3h.1l1.1.2h.1l1 .1h.1c.7.1 1.3.1 1.9.2h3.8l.2-.03.3-.05.2-.1.24-.1.1-.04.3-.2.18-.15V27l.1-.13.05-.1.1-.17.05-.1.07-.2.1-.1.2-.76v-.1l.05-.3v-.13c.05-.1.06-.2.07-.3l.05-.15.04-.37.05-.13.07-1.08v-.1c.05-.16.06-.3.06-.46V22l.02-.44v-1.84c-.02-2-.15-3.84-.3-4.5-1.03-.7-3.2-.3-3.97-.3-.22.1-.44 1-.74 2.1l-.2.6h-.05c-.02.26-.1.48-.2.7-.4 1.3-.9 2.65-1.7 3.3-.37.3-.77.43-1.2.4-2.9-.4-6.2 2.87-4.9 4.44z"/>
  <path d="M9.34 21.32c1.03-.25 1.72-1.92 2.2-3.48-.87 1.18-1.95 2.22-2.96 2.15-1.15 0-1.2 1.1.76 1.3zM5.4 27.3c-.82-.14-1.32-.43-1.62-.75-.57.9-1.08 1.73-1.4 2.26h-.95v1.5h4.63v-1.5h-.08l.9-1.2-1.5-.2z"/>
</svg>
