<svg xmlns="http://www.w3.org/2000/svg" viewBox="0 0 31.96 31.96">
  <path d="M4.42 12.88c-.8.33.44 4.18.44 4.18s-1.8-1.96-2.16-.5c-.35 1.45 1.35 2.62 1.35 2.62s.77 3.55-.5 3.64C2.5 19.05-.83 18.9.18 13.54c1-5.36 6-5.12 11.32-4 2.32.7 13.94 4.53 16.1 3.25.48 1.07-4.55 2.63-4.55 2.63s7.1.82 8.87-1.85c.6 3.86-10.9 5.34-10.9 5.34s6.55.04 8.42-.27C17.83 25.05 7.2 22.62 7.2 22.62l-.27-.75s2.45.18 3.25-.26c.8-.43.4-2.37.44-3.06.04-.68.55-1.06.42-1.67-.06-.27-.93-.46-1.26-1.1-.44-.8-.2-2.1-.5-2.25-.56-.27-3 .13-3.45.07-.44-.08-.6-1.05-1.4-.72z"/>
</svg>
